HIERARCHY
ROOT Hips
{
	OFFSET 62.890800 8.863803 43.568401
	CHANNELS 6 Xposition Yposition Zposition Zrotation Xrotation Yrotation
	JOINT Chest
	{
		OFFSET -0.160400 1.630001 7.806301
		CHANNELS 6 Xposition Yposition Zposition Zrotation Xrotation Yrotation
		JOINT Chest2
		{
			OFFSET 0.000000 0.000000 3.197998
			CHANNELS 6 Xposition Yposition Zposition Zrotation Xrotation Yrotation
			JOINT Neck
			{
				OFFSET 0.000000 0.000001 7.440701
				CHANNELS 6 Xposition Yposition Zposition Zrotation Xrotation Yrotation
				JOINT Head
				{
					OFFSET 0.000000 0.000000 2.173901
					CHANNELS 6 Xposition Yposition Zposition Zrotation Xrotation Yrotation
					End Site
					{
						OFFSET 0.000000 0.000001 10.420303
					}
				}
			}
			JOINT LeftCollar
			{
				OFFSET 2.426399 -1.880099 4.759399
				CHANNELS 6 Xposition Yposition Zposition Zrotation Xrotation Yrotation
				JOINT LeftShoulder
				{
					OFFSET 4.420197 0.000000 0.000000
					CHANNELS 6 Xposition Yposition Zposition Zrotation Xrotation Yrotation
					JOINT LeftElbow
					{
						OFFSET 0.000000 -0.000001 -10.347099
						CHANNELS 6 Xposition Yposition Zposition Zrotation Xrotation Yrotation
						JOINT LeftWrist
						{
							OFFSET 0.000000 -0.000001 -12.496300
							CHANNELS 6 Xposition Yposition Zposition Zrotation Xrotation Yrotation
							End Site
							{
								OFFSET 0.000000 0.000000 -2.173901
							}
						}
					}
				}
			}
			JOINT RightCollar
			{
				OFFSET -2.781502 -1.903799 5.072601
				CHANNELS 6 Xposition Yposition Zposition Zrotation Xrotation Yrotation
				JOINT RightShoulder
				{
					OFFSET -4.012100 0.000000 0.000000
					CHANNELS 6 Xposition Yposition Zposition Zrotation Xrotation Yrotation
					JOINT RightElbow
					{
						OFFSET 0.000000 -0.000001 -10.346600
						CHANNELS 6 Xposition Yposition Zposition Zrotation Xrotation Yrotation
						JOINT RightWrist
						{
							OFFSET 0.000000 -0.000001 -12.562599
							CHANNELS 6 Xposition Yposition Zposition Zrotation Xrotation Yrotation
							End Site
							{
								OFFSET 0.000000 0.000000 -2.173901
							}
						}
					}
				}
			}
		}
	}
	JOINT LeftHip
	{
		OFFSET 2.047997 -0.047200 -2.693199
		CHANNELS 6 Xposition Yposition Zposition Zrotation Xrotation Yrotation
		JOINT LeftKnee
		{
			OFFSET 0.000000 -0.000001 -18.824400
			CHANNELS 6 Xposition Yposition Zposition Zrotation Xrotation Yrotation
			JOINT LeftAnkle
			{
				OFFSET 0.000000 -0.000002 -19.078199
				CHANNELS 6 Xposition Yposition Zposition Zrotation Xrotation Yrotation
				End Site
				{
					OFFSET 0.000000 -9.342100 0.000001
				}
			}
		}
	}
	JOINT RightHip
	{
		OFFSET -2.129898 -0.022300 -2.538300
		CHANNELS 6 Xposition Yposition Zposition Zrotation Xrotation Yrotation
		JOINT RightKnee
		{
			OFFSET 0.000000 -0.000001 -18.644600
			CHANNELS 6 Xposition Yposition Zposition Zrotation Xrotation Yrotation
			JOINT RightAnkle
			{
				OFFSET 0.000000 -0.000002 -18.801399
				CHANNELS 6 Xposition Yposition Zposition Zrotation Xrotation Yrotation
				End Site
				{
					OFFSET 0.000000 -8.914600 0.000001
				}
			}
		}
	}
}
MOTION
Frames: 4
Frame Time: 0.041667
22.153488 -35.391613 21.585745 45.889756 46.057571 -44.603027 -0.160394 1.629997 7.806302 -32.099280 29.748073 -6.971721 0.000004 0.000005 3.197994 6.185901 -5.736173 0.352256 -0.000000 0.000006 7.440700 -43.596442 17.862972 2.342703 -0.000007 0.000004 2.173911 -4.961278 5.761860 -10.594947 2.426403 -1.880100 4.759402 0.723819 6.236998 -13.049839 4.420197 0.000007 -0.000003 -77.270176 -13.113152 -100.339263 0.000001 -0.000001 -10.347093 31.843783 -14.395746 11.893343 -0.000002 0.000006 -12.496290 458.295667 13.612476 -13.235185 -2.781503 -1.903799 5.072601 14.228490 18.339092 -4.237764 -4.012094 0.000000 -0.000001 41.637352 -12.926027 122.766162 0.000002 -0.000001 -10.346597 8.498761 -7.235978 -2.870509 -0.000001 0.000001 -12.562595 784.751306 1.222609 48.703265 2.047991 -0.047200 -2.693198 129.053009 7.948873 124.174396 -0.000001 0.000004 -18.824396 20.726942 169.451051 -65.331415 0.000005 0.000005 -19.078203 26.479296 -13.573556 29.817464 -2.129891 -0.022297 -2.538300 -504.486788 -26.079686 -134.801269 -0.000007 0.000000 -18.644594 379.252865 174.563735 41.564372 0.000007 -0.000003 -18.801397 -55.785655 -13.948717 -54.996389
22.490185 -35.418015 21.672443 43.273524 47.231547 -43.556328 -0.160404 1.629994 7.806303 -30.406028 29.581058 -6.746094 -0.000002 0.000001 3.198000 5.670687 -5.689419 0.298019 -0.000000 0.000007 7.440697 -44.357724 16.954297 2.327063 -0.000007 0.000001 2.173908 -5.101855 5.576413 -10.780292 2.426402 -1.880099 4.759394 0.812282 6.287852 -13.122693 4.420197 0.000005 -0.000010 -77.496747 -13.307855 -100.216518 0.000002 0.000001 -10.347095 32.154024 -13.734043 11.556226 0.000000 -0.000012 -12.496296 458.452843 13.566509 -13.455882 -2.781500 -1.903798 5.072601 14.140632 18.322643 -3.472186 -4.012096 0.000001 0.000002 42.330593 -12.821737 122.731778 0.000000 0.000000 -10.346602 9.944183 -6.752045 -2.588808 -0.000004 0.000000 -12.562596 783.311229 0.972624 47.487198 2.047998 -0.047203 -2.693196 129.504717 7.870002 124.398795 0.000005 0.000001 -18.824400 19.858251 170.112978 -64.922355 -0.000001 -0.000001 -19.078192 27.723422 -14.327850 30.693518 -2.129892 -0.022301 -2.538302 -504.272921 -25.727455 -135.314981 -0.000000 0.000000 -18.644598 378.992089 173.889486 42.408665 0.000000 -0.000002 -18.801395 -55.465555 -14.238871 -54.695636
22.836193 -35.449608 21.754044 41.110277 48.111272 -42.801770 -0.160401 1.629997 7.806302 -29.121837 29.388132 -6.620569 0.000007 0.000004 3.198001 5.083455 -5.637070 0.232688 0.000000 0.000005 7.440711 -45.047444 16.050255 2.240550 -0.000004 -0.000002 2.173902 -5.380825 5.371966 -10.488736 2.426402 -1.880100 4.759401 0.954201 6.236846 -13.227912 4.420196 -0.000005 0.000008 -77.652516 -13.518234 -99.937074 -0.000007 -0.000003 -10.347095 32.426781 -13.105335 11.229225 0.000000 0.000001 -12.496297 458.700096 13.529561 -13.677829 -2.781502 -1.903803 5.072609 13.966703 18.229934 -2.599314 -4.012097 0.000007 0.000000 43.096936 -12.747505 122.628684 -0.000010 -0.000002 -10.346595 11.236631 -6.376239 -2.353514 -0.000005 -0.000001 -12.562601 782.085183 0.680866 46.189581 2.047992 -0.047200 -2.693210 129.533991 7.801594 124.628727 -0.000002 -0.000002 -18.824396 19.057083 170.765207 -64.398056 0.000001 -0.000005 -19.078194 29.263758 -15.022091 31.536585 -2.129893 -0.022299 -2.538299 -504.576345 -25.354344 -135.830579 -0.000000 0.000000 -18.644598 378.845431 172.974623 43.196784 0.000005 -0.000004 -18.801395 -54.825706 -14.539542 -54.070605
23.190388 -35.486313 21.830242 38.913572 49.017020 -42.022619 -0.160406 1.629992 7.806304 -27.805159 29.155506 -6.541411 0.000009 0.000001 3.198004 4.439886 -5.575366 0.158599 -0.000004 0.000003 7.440708 -45.699392 15.151289 2.096452 -0.000005 0.000001 2.173903 -5.546967 5.213039 -10.503596 2.426403 -1.880104 4.759407 1.127110 6.127565 -13.354865 4.420197 -0.000002 -0.000010 -77.718940 -13.726291 -99.558162 0.000001 0.000003 -10.347099 32.786728 -12.562712 10.980147 -0.000004 -0.000008 -12.496299 458.932595 13.553504 -13.813214 -2.781504 -1.903803 5.072604 13.747614 18.052151 -1.677196 -4.012101 0.000000 -0.000001 43.853691 -12.630733 122.476343 0.000000 -0.000002 -10.346596 12.316154 -6.107595 -2.153175 0.000001 -0.000001 -12.562598 781.043224 0.315259 44.815719 2.047993 -0.047203 -2.693196 129.601733 7.755088 124.832608 0.000005 -0.000003 -18.824409 18.292491 171.344557 -63.801576 -0.000002 -0.000007 -19.078197 30.939398 -15.669808 32.338320 -2.129894 -0.022304 -2.538295 -504.903211 -24.968207 -136.375040 -0.000006 0.000000 -18.644594 378.772457 171.892625 43.965808 0.000001 -0.000004 -18.801399 -53.932878 -14.846444 -53.373786
